<svg xmlns="http://www.w3.org/2000/svg" xmlns:xlink="http://www.w3.org/1999/xlink" id="Capa_1" x="0px" y="0px" viewBox="0 0 126 234" style="enable-background:new 0 0 126 234;" xml:space="preserve">
<style type="text/css">
	.st0{fill:#D19D90;}
	.st1{fill:#24272B;}
	.st2{fill:#E89A00;}
	.st3{fill:#E2B7AC;}
	.st4{fill:#210500;}
	.st5{fill:#0E418C;}
	.st6{fill:#0D47A1;}
	.st7{fill:#D38802;}
	.st8{fill:#930000;}
	.st9{opacity:0.55;fill:#D7DADD;}
	.st10{opacity:0.63;fill:#FFFFFF;}
	.st11{fill:#848484;}
	.st12{fill:#AABACE;}
</style>
<g>
	<g>
		<path class="st0" d="M107.08,79.84c-1.7,12.03-11.8,11.24-13.78,9.83c-1.98-1.42-6.66-19.31-6.66-19.31l9.33-9.76l4.24,16.54    c0,0,3.32-3.25,5.02-0.98C106.94,78.43,107.08,79.84,107.08,79.84z"></path>
		<path d="M90.87,51.26c-2.44-0.02-10.86,4.62-11.45,11.46c-0.6,6.84,7,18.25,7,18.25s16.74-6.69,16.13-7.85    C99.15,66.61,96.06,51.32,90.87,51.26z"></path>
		<g>
			<g>
				<g>
					<path d="M42.82,198.35c-1.42,8.72-2.27,13.14,2.41,13.87c4.19,0.66,5.31-1.69,7.82-0.45c6.45,3.15,9,2.69,11.08,2.69       c8.25,0,8.17-5.7,2.19-7.56c-5.99-1.88-10.63-8.87-10.63-8.87L42.82,198.35z"></path>
					<path class="st1" d="M48.06,199.59c1.67,1.45,5.94,4.18,7.42,5.37c1.46,1.19,6.17,4.23,11.85,4.48       c1.48,0.07,2.08-1.09,0.53-1.81c-1.55-0.72-2.16-0.54-6.45-3.43c-3.78-2.54-5.27-5.38-6.19-5.54       c-0.92-0.14-3.41,0.89-3.41,0.89L48.06,199.59z"></path>
				</g>
				<path class="st1" d="M77.93,84.79c-3.24,4.86-9.34,15.09-9.34,19.95c0,4.86-3.95,54.15-6.38,56.59      c-2.44,2.43-0.57,42.82-0.57,42.82l-11.87-0.23c0,0-9.63-52.75-8.01-61.67c1.62-8.91-1.62-46.17,8.92-55.89      C61.2,76.64,77.93,84.79,77.93,84.79z"></path>
				<g>
					<path d="M39.03,205.47l13.41,0.28c0.21-1.1,1.1-44.1,2.15-45.27c1.36-1.52,7.5-50.56,7.64-58c0.15-7.45,4.73-7.57,5.94-10.75       c0,0-13.3-2.34-13.75-2.03c-0.26,0.17-4.93,3.81-9.3,7.53c-3.87,14.98-2.03,44.01-3.27,50.8       C40.24,156.95,39.03,205.47,39.03,205.47z"></path>
				</g>
			</g>
			<g>
				<g>
					<path d="M15.19,198.74c-2.54,6.63-3.43,14,1.37,15.41c4.32,1.26,4.53-0.93,7.01,0.71c6.33,4.2,9.62,3.41,11.78,3.69       c8.66,1.13,9.36-4.87,3.33-7.64c-6.02-2.78-9.17-10.41-9.17-10.41L15.19,198.74z"></path>
					<path class="st1" d="M20.53,200.74c1.54,1.76,5.66,5.2,7.04,6.65c1.38,1.46,5.9,5.29,11.83,6.32c1.54,0.27,2.33-0.86,0.8-1.84       c-1.53-0.97-3.87-1.81-6.9-5.56c-3.02-3.76-2.66-5.11-3.61-5.39c-0.94-0.29-5.23,0.29-5.23,0.29L20.53,200.74z"></path>
				</g>
				<g>
					<path d="M67.07,91.62c-2.12,5.47-14.9,7.71-17.03,16.52c-2.12,8.81-4.62,49.8-7.05,49.8c-2.43,0-8.16,48.66-8.16,48.66       s-20.66,2.04-20.69,0.32c-0.74-39.79,6.48-53.79,6.48-53.79s0.24-15.91,1.76-28.66c1.51-12.76,3.14-21.69,2.93-25.24       C24.67,88.61,29.13,79.7,40.8,72.06C44.34,69.74,67.07,91.62,67.07,91.62z"></path>
				</g>
			</g>
		</g>
		<path class="st0" d="M79.29,27.38c-1.73,2.15-0.62,6.75-4.42,9.25c-3.5,2.28-2.97,1.72-2.97,1.72l6.79,15.61    c0,0,5.94-0.35,6.41-1.81c0.32-0.95,2.12-2.62,2.61-3.75c0.94-2.17,3.04-4.97,3.38-4.88C92.34,43.86,79.29,27.38,79.29,27.38z"></path>
		<path class="st1" d="M88.53,46.01c2.61,4.33,1.76,4.05,3.03,6.92c1.27,2.86-3.29,15.04-9.5,23.92    c-1.93,2.74-6.36,6.36-11.13,12.76c-2.05,2.75-4.75,6.05-6.06,8.54c-1.09,2.08-8.49-4.03-8.49-4.03s3.98-1.96,8.84-12.18    c5.39-11.35,13.93-31.67,19.06-31C87.26,51.33,88.53,46.01,88.53,46.01z"></path>
		<path class="st2" d="M89.12,45.75l5.22,5.94c0,0,0.27,9.32-6.58,22.14c-3.97,7.42-12.76,23.5-14.07,26.45    c-2.27,1.43-13.44-0.2-14.05-1.5c-0.62-1.31,21.11-33.89,23.11-38.76c6.55-0.02,7.84-8.36,5.68-12.35    C87.76,46.43,89.12,45.75,89.12,45.75z"></path>
		<path class="st3" d="M103.99,29.8c-0.37-4.06-4.11-8.46-9.24-10.59c-7.37-3.04-14.15,2.35-16.12,10.43    c-1.88,7.68,2.97,17.06,6.82,19.08c-0.01,0,2.65,2.01,6.86-1.23c1.18-0.92,4.68-5.07,6.73-7.55    C100.77,37.84,104.72,30.49,103.99,29.8z"></path>
		<path d="M85.29,50.8c-9.32-4.45-10.42-14.17-10.42-14.17c-8.48-0.26-16.34-0.05-20.56,2.88c-5.22,3.64-8.98,14.59-9.76,15.85    c-6.14,9.87-6.78,17.77-8.95,26.1c-0.49,1.91-3.95,8.84-1.33,10.45c8.69,5.31,23.49,5.33,25.65,5.43c0,0,3.06-8.14,5.28-11    c3.29-4.27,9.98-7.86,13.81-19.22C83.18,63.68,86.35,51.31,85.29,50.8z"></path>
		<path class="st4" d="M97.56,25.69c-1.06,1.74-5.22-0.03-7.88,0.18c-2.66,0.22-6.28,1.98-6.75,2.61c-0.44,0.64-1.06-2.54-2.92-1.57    c-1.86,1-1.51,5.6-0.72,6.24c0.91,0.74-1.98,4.57-1.98,4.57s-3.55-7.53,1.99-15.4c5.55-7.87,15.16-6.81,17.91-4.71    C101.19,20.66,97.56,25.69,97.56,25.69z"></path>
		<g>
			<path class="st5" d="M78.06,24.43c5.78,1.77,13.22,3.69,13.22,3.69l5.13-12.01c0,0-7.59-1.96-12.44,0.26     C80.8,17.8,78.06,24.43,78.06,24.43z"></path>
			<path class="st6" d="M89.56,27.3l13.95,7.62c0,0,4.68-6.58,3.49-10.3c-1.18-3.72-9.38-9.19-11.17-8.56     C93.87,16.75,89.56,27.3,89.56,27.3z"></path>
			<path class="st6" d="M87.21,25.94c1.16,0.78,3.36,8.62,4.57,9.16c1.21,0.54,14.13,7.78,14.72,6.79c0.6-0.99-3.27-7.31-3.27-7.31     L87.21,25.94z"></path>
		</g>
		<path class="st7" d="M83.76,59.68c-3.91,0.68-10.02-6.63-12.06-16.62c-0.71-3.51-3.53-6.8-3.53-6.8l-7.64,0.43    c0,0,7.82,6.39,1.41,15.84c-6.4,9.46-11.67,7.88-13.97,6.26c-1.04-0.73-3.01-5.41-3.01-5.41S33.14,73.06,32.03,79.17    C36.62,85.9,58.19,99.45,61.83,100c3.64,0.56,17.66-26.65,19.87-31.85C83.91,62.94,83.76,59.68,83.76,59.68z"></path>
		<path class="st3" d="M90.76,82.77c-4.64-1.3-20.33-11.24-22.23-11.78c-3.36-8.21-6.77-17.89-6.77-17.89l-10.24,0.5    c0,0-4.57,6,5.34,25.24c0,0,5.3,7.64,30.2,10.61C89.48,89.74,90.76,82.77,90.76,82.77z"></path>
		<path d="M61.81,39.3c-2.97-1.55-9.47-2.05-12.02,5.37c-2.97,8.63,0.93,25.03,0.93,25.03s16.11-3.78,17.11-4.9    C68.82,63.68,67.05,42.04,61.81,39.3z"></path>
		<g>
			<g>
				<path class="st8" d="M94.98,108.97c5.09,1.06,5.52,0.21,9.55-1.7c3.82,2.54,4.88,3.6,4.88,3.6s-11.89,3.82-16.98,0.64      C94.56,108.75,94.98,108.97,94.98,108.97z"></path>
				<path class="st9" d="M88.83,83.72c0,0-1.28,17.19-2.34,28.23c7.42,3.18,26.54,1.78,26.38-0.5c-0.57-8.49-0.71-28.16-1.99-28.58      C109.63,82.44,88.83,83.72,88.83,83.72z"></path>
			</g>
			<polygon class="st10" points="87.55,84.28 110.44,84.35 110.47,89.73 86.74,89.8    "></polygon>
			<polygon class="st11" points="103.15,85.66 109.19,85.77 109.13,88.32 103.05,88.22    "></polygon>
		</g>
		<path class="st12" d="M82.71,79.4c0,0,10.99,3.12,12.17,3.77c1.32,0.73,3.05,2.92,3.42,3.51c0.82,1.33,0.7,1.2,1.47,3.09    c0.58,1.4-1,1.32-1.93,0.15c-0.79-0.98-1.66-2.14-1.66-2.14l-1.19-0.62c0,0,2.5,3.32,2.77,3.68c0.28,0.37,1.17,2.6,1.49,3.13    c0.46,0.76-0.74,2-1.68,1c-0.95-0.99-2.44-3.3-2.99-4.03c-0.56-0.73-0.8-0.79-0.8-0.79c1.52,2.05,3.3,4.57,3.4,5.46    c0.09,0.88-1.41,1.14-2.33-0.07c-0.91-1.21-3.07-3.04-3.07-3.04l2.9,3.06c0,0-0.29,0.55-0.94,0.46c-1.04-0.13-2.82-1.07-4.48-2.16    c-2.44-1.6-3.15-2.07-5.06-3.44c-1.18-0.84-4.58-0.63-4.71-0.88C77.77,86.4,78.95,79.77,82.71,79.4z"></path>
		<path class="st12" d="M97.56,73.16c1.25-1.31,6.84-2.01,8.86-0.04c1.46,1.42,1.92,3.85,1.92,3.85s0.21,1.89-0.1,2.78    c-0.45,1.35-1.1,3.44-2.5,3.63c-1.4,0.2,0.78-2.6,0.63-3.73c-0.15-1.12-0.38-1.17-0.38-1.17s-0.43,1-0.72,3.04    c0,0-1.93,3.62-3.82,3.88c-0.64,0.09,0.52-1.25,1.3-3.54c0.81-2.39,0.51-3.07,0.51-3.07s0.14,1-0.41,2.77    c-0.6,1.97-1.96,4.7-2.85,4.67c-1.05-0.04-0.42-2.27,0.16-4.12c0.34-1.1,0.17-2.14,0.08-2.41c-0.12-0.34,0.86,4.66-2.07,5.71    c-1.46,0.52,0.21-6.25,0.03-7.5c-0.07-0.53-1.24-0.33-1.18,0.62c0.22,3.36-0.26,3.45-0.68,2.67c-0.99-1.85-1.94-2.74-1.68-3.89    C95.16,75.19,97.56,73.16,97.56,73.16z"></path>
	</g>
</g>
</svg>